# xmcd CD database file generated by Grip 3.2.0
# 
# Track frame offsets:
#       150
#       16100
#       32319
#       52320
#       69900
#       83202
#       98120
#       119512
#       131355
#       147812
#       164082
#       179092
#       195865
#       208117
#       237160
# 
# Disc length: 3413 seconds
# 
# Revision: 5
# Processed by: cddbd v1.5.1PL2 Copyright (c) Steve Scherf et al.
# Submitted via: Grip 3.2.0
# 
DISCID=cc0d530f
DTITLE=Various Artist - Where Joy Kills Sorrow
DYEAR=1900
DGENRE=Country
TTITLE0=Mick Harvey - Just a little bit of rain
TTITLE1=Joel Silbersher - When you're tired of breakin' other hearts
TTITLE2=Renee Geyer with Uncle Bill - I Scare Myself
TTITLE3=Greg Perkins - Yellow Roses
TTITLE4=Uncle Bill - The world's got everythin' in it
TTITLE5=Warren and John Ellis - Mis'ry is my middle name
TTITLE6=Robert Forster - The speed of the sound of loneliness
TTITLE7=Paul Kelly - Thanks a lot
TTITLE8=Bruce Haymes - Duchess
TTITLE9=Rob Snarski with Matt Walker - If you don't want my love
TTITLE10=Vika and Linda Bull - I'd rather be sorry
TTITLE11=Chris Abrahams and Melanie Oxley - The way you see me
TTITLE12=David McComb - Still alive and well
TTITLE13=Matt Walker and Ashley Davies - When I dream
TTITLE14=Dave Graney and Clare Moore - This is forever
EXTD=
EXTT0=
EXTT1=
EXTT2=
EXTT3=
EXTT4=
EXTT5=
EXTT6=
EXTT7=
EXTT8=
EXTT9=
EXTT10=
EXTT11=
EXTT12=
EXTT13=
EXTT14=
PLAYORDER=
